<svg width="20" height="20" viewBox="0 0 20 20" fill="none" xmlns="http://www.w3.org/2000/svg">
  <path d="M15.794 1.28998C15.9815 1.10251 16.2358 0.997192 16.501 0.997192C16.7662 0.997192 17.0205 1.10251 17.208 1.28998L18.711 2.79298C18.8985 2.98051 19.0038 3.23481 19.0038 3.49998C19.0038 3.76514 18.8985 4.01945 18.711 4.20698L17.208 5.70998C17.0205 5.89745 16.7662 6.00277 16.501 6.00277C16.2358 6.00277 15.9815 5.89745 15.794 5.70998L14.29 4.20698C14.1025 4.01945 13.9972 3.76514 13.9972 3.49998C13.9972 3.23481 14.1025 2.98051 14.29 2.79298L15.793 1.28998H15.794ZM5.5 17H7V13H3V14.5C3 15.163 3.26339 15.7989 3.73223 16.2677C4.20107 16.7366 4.83696 17 5.5 17ZM7 7.99998V12H3V7.99998H7ZM12 12H8V7.99998H12V12ZM8 13H12V17H8V13ZM13 7.99998V12H17V7.99998H13ZM13 13H17V14.5C17 15.163 16.7366 15.7989 16.2678 16.2677C15.7989 16.7366 15.163 17 14.5 17H13V13ZM3 6.99998H7V2.99998H5.5C4.83696 2.99998 4.20107 3.26337 3.73223 3.73221C3.26339 4.20105 3 4.83694 3 5.49998V6.99998ZM8 6.99998V2.99998H12V6.99998H8Z" fill="#ed6856"/>
</svg>
