<?xml version="1.0" standalone="no"?>
<!DOCTYPE svg PUBLIC "-//W3C//DTD SVG 20010904//EN"
 "http://www.w3.org/TR/2001/REC-SVG-20010904/DTD/svg10.dtd">
<svg version="1.0" xmlns="http://www.w3.org/2000/svg"
 width="700.000000pt" height="700.000000pt" viewBox="0 0 700.000000 700.000000"
 preserveAspectRatio="xMidYMid meet">
<metadata>
Created by potrace 1.14, written by Peter Selinger 2001-2017
</metadata>
<g transform="translate(0.000000,700.000000) scale(0.100000,-0.100000)"
fill="#000000" stroke="none">
<path d="M5678 6637 c-26 -8 -66 -26 -89 -42 -24 -15 -175 -160 -336 -322
-343 -343 -347 -349 -348 -498 0 -148 6 -157 359 -510 354 -354 363 -360 511
-360 149 0 157 6 511 359 353 354 359 363 359 511 0 151 -4 156 -357 509 -344
342 -362 356 -486 362 -46 2 -96 -1 -124 -9z"/>
<path d="M1829 5946 c-2 -2 -23 -6 -45 -9 -120 -17 -261 -75 -369 -151 -125
-90 -253 -254 -306 -396 -50 -132 -58 -204 -59 -532 l-1 -308 701 0 700 0 0
700 0 701 -309 -1 c-170 -1 -310 -3 -312 -4z"/>
<path d="M2800 5250 l0 -700 700 0 700 0 0 700 0 700 -700 0 -700 0 0 -700z"/>
<path d="M1050 3500 l0 -700 700 0 700 0 0 700 0 700 -700 0 -700 0 0 -700z"/>
<path d="M2800 3500 l0 -700 700 0 700 0 0 700 0 700 -700 0 -700 0 0 -700z"/>
<path d="M4550 3500 l0 -700 700 0 700 0 0 700 0 700 -700 0 -700 0 0 -700z"/>
<path d="M1051 2148 c1 -382 10 -445 93 -615 108 -221 360 -420 581 -459 16
-3 47 -9 69 -14 21 -4 177 -9 347 -10 l309 -1 0 701 0 700 -700 0 -701 0 2
-302z"/>
<path d="M2800 1750 l0 -700 700 0 700 0 0 700 0 700 -700 0 -700 0 0 -700z"/>
<path d="M4550 1750 l0 -701 303 2 c329 1 381 6 504 48 223 77 408 242 508
452 72 152 78 195 83 567 l4 332 -701 0 -701 0 0 -700z"/>
</g>
</svg>
